# Blender 3.4.1
# www.blender.org
mtllib block.mtl
o Cube
v -0.500000 0.000000 0.500000
v -0.500000 1.000000 0.500000
v -0.500000 0.000000 -0.500000
v -0.500000 1.000000 -0.500000
v 0.500000 0.000000 0.500000
v 0.500000 1.000000 0.500000
v 0.500000 0.000000 -0.500000
v 0.500000 1.000000 -0.500000
vn -1.0000 -0.0000 -0.0000
vn -0.0000 -0.0000 -1.0000
vn 1.0000 -0.0000 -0.0000
vn -0.0000 -0.0000 1.0000
vn -0.0000 -1.0000 -0.0000
vn -0.0000 1.0000 -0.0000
vt 1.000000 1.000000
vt -0.000000 1.000000
vt 0.000000 0.000000
vt 1.000000 0.000000
vt 0.000000 1.000000
vt 0.001923 1.001916
vt 0.000000 0.000000
vt 1.000000 1.000000
vt 1.000000 0.000000
vt -0.001916 0.001923
vt 1.000000 1.000000
vt 0.000000 1.000000
vt 1.000000 1.000000
vt 1.000000 0.000000
vt 0.000000 0.000000
vt 0.000000 1.000000
vt 1.001916 0.998077
vt 1.000000 0.000000
vt 1.000000 0.000000
vt 0.998077 -0.001916
vt 0.000000 0.000000
s 0
usemtl Material.007
f 2/3/1 3/8/1 1/2/1
f 4/10/2 7/17/2 3/6/2
f 8/21/3 5/13/3 7/16/3
f 6/15/4 1/1/4 5/12/4
f 7/18/5 1/2/5 3/7/5
f 4/11/6 6/15/6 8/19/6
f 2/3/1 4/9/1 3/8/1
f 4/10/2 8/20/2 7/17/2
f 8/21/3 6/14/3 5/13/3
f 6/15/4 2/4/4 1/1/4
f 7/18/5 5/13/5 1/2/5
f 4/11/6 2/5/6 6/15/6
